# xmcd
#
# Track frame offsets: 
#        150
#        14902
#        34693
#        47239
#        65749
#        80614
#        95179
#        108713
#        128469
#        146751
#        167598
#        185837
#        200483
#
# Disc length: 2859 seconds
#
# Revision: 0
# Processed by: cddbd v1.5.2PL0 Copyright (c) Steve Scherf et al.
# Submitted via: ExactAudioCopy v1.3
#
DISCID=c70b290d
DTITLE=The Nighthawks - 444
DYEAR=2014
DGENRE=Harmonica Blues, Modern Electric Blues
TTITLE0=Walk That Walk
TTITLE1=Livin' The Blues
TTITLE2=444 A.M.
TTITLE3=You're Gone
TTITLE4=Honky Talk Queen
TTITLE5=Got a Lot of Livin'
TTITLE6=Crawfish
TTITLE7=Price of Love
TTITLE8=High Snakes
TTITLE9=Nothin' But the Blues
TTITLE10=No Secrets
TTITLE11=Louisiana
TTITLE12=Roadside Cross
EXTD=
EXTT0=
EXTT1=
EXTT2=
EXTT3=
EXTT4=
EXTT5=
EXTT6=
EXTT7=
EXTT8=
EXTT9=
EXTT10=
EXTT11=
EXTT12=
PLAYORDER=
